<svg width="33" height="33" viewBox="0 0 33 33" fill="none" xmlns="http://www.w3.org/2000/svg">
<path d="M14.1964 5.9363C14.7827 3.52123 18.2173 3.52123 18.8036 5.9363C19.1824 7.4964 20.9698 8.23677 22.3407 7.40142C24.463 6.10829 26.8917 8.53697 25.5986 10.6593C24.7632 12.0302 25.5036 13.8176 27.0637 14.1964C29.4788 14.7827 29.4788 18.2173 27.0637 18.8036C25.5036 19.1824 24.7632 20.9698 25.5986 22.3407C26.8917 24.463 24.463 26.8917 22.3407 25.5986C20.9698 24.7632 19.1824 25.5036 18.8036 27.0637C18.2173 29.4788 14.7827 29.4788 14.1964 27.0637C13.8176 25.5036 12.0302 24.7632 10.6593 25.5986C8.53697 26.8917 6.10829 24.463 7.40142 22.3407C8.23677 20.9698 7.4964 19.1824 5.9363 18.8036C3.52123 18.2173 3.52123 14.7827 5.9363 14.1964C7.4964 13.8176 8.23677 12.0302 7.40142 10.6593C6.10829 8.53697 8.53697 6.10828 10.6593 7.40142C12.0302 8.23676 13.8176 7.4964 14.1964 5.9363Z" stroke="#A3A3A3" stroke-width="2.75" stroke-linecap="round" stroke-linejoin="round"/>
<path d="M20.625 16.5C20.625 18.7782 18.7782 20.625 16.5 20.625C14.2218 20.625 12.375 18.7782 12.375 16.5C12.375 14.2218 14.2218 12.375 16.5 12.375C18.7782 12.375 20.625 14.2218 20.625 16.5Z" stroke="#A3A3A3" stroke-width="2.75" stroke-linecap="round" stroke-linejoin="round"/>
</svg>
