<svg width="31" height="31" viewBox="0 0 31 31" fill="none" xmlns="http://www.w3.org/2000/svg">
<path d="M25.2084 15.125V27.7292H5.04175V15.125" stroke="#A3A3A3" stroke-width="2.52083" stroke-linecap="round" stroke-linejoin="round"/>
<path d="M27.7291 8.823H2.52075V15.1251H27.7291V8.823Z" stroke="#A3A3A3" stroke-width="2.52083" stroke-linecap="round" stroke-linejoin="round"/>
<path d="M15.125 27.7292V8.823" stroke="#A3A3A3" stroke-width="2.52083" stroke-linecap="round" stroke-linejoin="round"/>
<path d="M15.1249 8.82259H9.45304C8.61734 8.82259 7.81586 8.49061 7.22492 7.89967C6.63399 7.30874 6.302 6.50726 6.302 5.67155C6.302 4.83584 6.63399 4.03436 7.22492 3.44343C7.81586 2.85249 8.61734 2.52051 9.45304 2.52051C13.8645 2.52051 15.1249 8.82259 15.1249 8.82259Z" stroke="#A3A3A3" stroke-width="2.52083" stroke-linecap="round" stroke-linejoin="round"/>
<path d="M15.125 8.82259H20.7969C21.6326 8.82259 22.4341 8.49061 23.025 7.89967C23.6159 7.30874 23.9479 6.50726 23.9479 5.67155C23.9479 4.83584 23.6159 4.03436 23.025 3.44343C22.4341 2.85249 21.6326 2.52051 20.7969 2.52051C16.3854 2.52051 15.125 8.82259 15.125 8.82259Z" stroke="#A3A3A3" stroke-width="2.52083" stroke-linecap="round" stroke-linejoin="round"/>
</svg>
