<svg width="33" height="33" viewBox="0 0 33 33" fill="none" xmlns="http://www.w3.org/2000/svg">
<g id="icon / heroicons / Outline / home">
<path id="Icon" d="M4.125 16.5L6.875 13.75M6.875 13.75L16.5 4.125L26.125 13.75M6.875 13.75V27.5C6.875 28.2594 7.49061 28.875 8.25 28.875H12.375M26.125 13.75L28.875 16.5M26.125 13.75V27.5C26.125 28.2594 25.5094 28.875 24.75 28.875H20.625M12.375 28.875C13.1344 28.875 13.75 28.2594 13.75 27.5V22C13.75 21.2406 14.3656 20.625 15.125 20.625H17.875C18.6344 20.625 19.25 21.2406 19.25 22V27.5C19.25 28.2594 19.8656 28.875 20.625 28.875M12.375 28.875H20.625" stroke="#A3A3A3" stroke-width="2.75" stroke-linecap="round" stroke-linejoin="round"/>
</g>
</svg>
